<?xml version="1.0" encoding="UTF-8"?>
<svg width="33px" height="33px" viewBox="0 0 33 33" version="1.1" xmlns="http://www.w3.org/2000/svg" xmlns:xlink="http://www.w3.org/1999/xlink">
    <title>today-24px</title>
    <defs>
        <filter id="filter-1">
            <feColorMatrix in="SourceGraphic" type="matrix" values="0 0 0 0 1.000000 0 0 0 0 0.301976 0 0 0 0 0.000252 0 0 0 1.000000 0"></feColorMatrix>
        </filter>
    </defs>
    <g id="Development" stroke="none" stroke-width="1" fill="none" fill-rule="evenodd">
        <g id="Headshot-version" transform="translate(-524.000000, -5803.000000)">
            <g id="today-24px" transform="translate(475.000000, 5782.000000)" filter="url(#filter-1)">
                <g transform="translate(49.000000, 21.000000)">
                    <polygon id="Path" points="0.5875 0.5 32.5875 0.5 32.5875 32.5 0.5875 32.5"></polygon>
                    <path d="M25.9208333,4.2 L24.5875,4.2 L24.5875,2.85 C24.5875,2.1075 23.9875,1.5 23.2541667,1.5 C22.5208333,1.5 21.9208333,2.1075 21.9208333,2.85 L21.9208333,4.2 L11.2541667,4.2 L11.2541667,2.85 C11.2541667,2.1075 10.6541667,1.5 9.92083333,1.5 C9.1875,1.5 8.5875,2.1075 8.5875,2.85 L8.5875,4.2 L7.25416667,4.2 C5.77416667,4.2 4.60083333,5.415 4.60083333,6.9 L4.5875,25.8 C4.5875,27.285 5.77416667,28.5 7.25416667,28.5 L25.9208333,28.5 C27.3875,28.5 28.5875,27.285 28.5875,25.8 L28.5875,6.9 C28.5875,5.415 27.3875,4.2 25.9208333,4.2 Z M24.5875,25.8 L8.5875,25.8 C7.85416667,25.8 7.25416667,25.1925 7.25416667,24.45 L7.25416667,10.95 L25.9208333,10.95 L25.9208333,24.45 C25.9208333,25.1925 25.3208333,25.8 24.5875,25.8 Z M11.2541667,13.65 L15.2541667,13.65 C15.9875,13.65 16.5875,14.2575 16.5875,15 L16.5875,19.05 C16.5875,19.7925 15.9875,20.4 15.2541667,20.4 L11.2541667,20.4 C10.5208333,20.4 9.92083333,19.7925 9.92083333,19.05 L9.92083333,15 C9.92083333,14.2575 10.5208333,13.65 11.2541667,13.65 Z" id="Shape" fill="#000000" fill-rule="nonzero"></path>
                </g>
            </g>
        </g>
    </g>
</svg>