<?xml version="1.0" encoding="UTF-8"?>
<svg width="71px" height="60px" viewBox="0 0 71 60" version="1.1" xmlns="http://www.w3.org/2000/svg" xmlns:xlink="http://www.w3.org/1999/xlink">
    <title>close</title>
    <defs>
        <filter id="filter-1">
            <feColorMatrix in="SourceGraphic" type="matrix" values="0 0 0 0 1.000000 0 0 0 0 0.301976 0 0 0 0 0.000252 0 0 0 1.000000 0"></feColorMatrix>
        </filter>
    </defs>
    <g id="Development" stroke="none" stroke-width="1" fill="none" fill-rule="evenodd" opacity="0.553385417">
        <g id="Headshot-version" transform="translate(-593.000000, -4298.000000)">
            <g id="close" transform="translate(553.000000, 4297.779697)" filter="url(#filter-1)">
                <g transform="translate(75.120199, 30.000000) scale(-1, 1) rotate(-13.000000) translate(-75.120199, -30.000000) translate(44.620199, 7.000000)">
                    <path d="M46.8392097,7.95338805 C39.3151842,7.95338805 33.3742912,14.0785777 33.3742912,21.6332343 C33.3742912,29.187891 39.5537384,35.3130806 47.0777639,35.3130806 C47.1530297,35.3130806 47.2665662,35.3028336 47.341832,35.3015527 C44.3669206,37.6801552 40.6304216,39.1134649 36.5405563,39.1134649 C34.6589121,39.1134649 33.1446668,40.6454027 33.1446668,42.5334265 C33.1446668,44.4214502 34.3552976,45.953388 36.2369418,45.953388 C49.5921509,45.9521072 60.1446668,35.042814 60.1446668,21.6332343 C60.1446668,21.6306726 60.1446668,21.6281108 60.1446668,21.6242681 C60.1446668,14.0734541 54.3606839,7.95338805 46.8392097,7.95338805 Z" id="Path" fill="#010002" fill-rule="nonzero"></path>
                    <path d="M13.7103522,0.305052198 C6.19697636,0.305052198 0.254301202,6.4302418 0.254301202,13.9848985 C0.254301202,21.5395552 6.4199063,27.6647448 13.934556,27.6647448 C14.0097152,27.6647448 14.1205432,27.6544977 14.1957025,27.6532168 C11.2250018,30.0318193 7.49251776,31.4651291 3.40844133,31.4651291 C1.52946044,31.4651291 0.0160846416,32.9970669 0.0160846416,34.8850906 C0.0160846416,36.7731144 1.24411012,38.3050522 3.12309101,38.3050522 C16.4593967,38.3037713 27.0160846,27.3944782 27.0160846,13.9848985 C27.0160846,13.9823367 27.0160846,13.979775 27.0160846,13.9759323 C27.0160846,6.42511827 21.2211802,0.305052198 13.7103522,0.305052198 Z" id="Path" fill="#010002" fill-rule="nonzero"></path>
                </g>
            </g>
        </g>
    </g>
</svg>