<svg xmlns="http://www.w3.org/2000/svg" width="68.856" height="43.1" viewBox="0 0 68.856 43.1">
  <g id="close" transform="translate(-0.084 5.78) rotate(-13)" opacity="0.55">
    <path id="Path" d="M13.695,0A13.518,13.518,0,0,0,.23,13.68a13.72,13.72,0,0,0,13.7,13.68c.075,0,.189-.01.264-.012A17.215,17.215,0,0,1,3.4,31.16,3.4,3.4,0,0,0,0,34.58,3.16,3.16,0,0,0,3.092,38,24.035,24.035,0,0,0,27,13.68v-.009A13.381,13.381,0,0,0,13.695,0Z" transform="translate(33.145 7.953)" fill="#010002"/>
    <path id="Path-2" data-name="Path" d="M13.694,0A13.517,13.517,0,0,0,.238,13.68a13.707,13.707,0,0,0,13.68,13.68c.075,0,.186-.01.261-.012A17.179,17.179,0,0,1,3.392,31.16,3.4,3.4,0,0,0,0,34.58,3.173,3.173,0,0,0,3.107,38,24.034,24.034,0,0,0,27,13.68v-.009A13.388,13.388,0,0,0,13.694,0Z" transform="translate(0.016 0.305)" fill="#010002"/>
  </g>
</svg>
