<?xml version="1.0" encoding="UTF-8"?>
<svg width="72px" height="72px" viewBox="0 0 72 72" version="1.1" xmlns="http://www.w3.org/2000/svg" xmlns:xlink="http://www.w3.org/1999/xlink">
    <title>Group 9</title>
    <defs>
        <linearGradient x1="50%" y1="0%" x2="50%" y2="100%" id="linearGradient-1">
            <stop stop-color="#FD9A00" offset="0%"></stop>
            <stop stop-color="#FF4B00" offset="100%"></stop>
        </linearGradient>
        <filter id="filter-2">
            <feColorMatrix in="SourceGraphic" type="matrix" values="0 0 0 0 1.000000 0 0 0 0 0.301976 0 0 0 0 0.000252 0 0 0 1.000000 0"></feColorMatrix>
        </filter>
    </defs>
    <g id="Development" stroke="none" stroke-width="1" fill="none" fill-rule="evenodd">
        <g id="Headshot-version" transform="translate(-386.000000, -2523.000000)">
            <g id="Group-13" transform="translate(386.000000, 2185.000000)">
                <g id="Group-9" transform="translate(0.000000, 338.000000)">
                    <circle id="Oval-2" stroke="url(#linearGradient-1)" stroke-width="3" cx="36" cy="36" r="34.5"></circle>
                    <g filter="url(#filter-2)" id="collaboration-2">
                        <g transform="translate(16.927419, 18.000000)">
                            <path d="M37.3475411,25.3525943 L33.7471933,21.8148148 L26.2992076,29.1327772 C24.9696968,30.4390781 23.3009955,31.2907657 21.4885006,31.6095077 L26.2339787,36.2721415 C26.6685484,36.6994096 27.3736008,36.6994096 27.8081705,36.2721415 C27.8081705,36.2721415 37.3475411,26.8995895 37.3475411,26.8995895 C37.7824007,26.4723215 37.7824007,25.7795775 37.3475411,25.3525943 L37.3475411,25.3525943 Z" id="Path" fill="#000000" fill-rule="nonzero"></path>
                            <path d="M32.5132836,19.9944956 C33.7637567,18.7490979 33.7640456,16.7224491 32.5150168,15.4761881 C32.5135725,15.4747493 32.5121282,15.4733106 32.5106839,15.4718718 C32.2016042,15.1642632 31.8405297,14.9271542 31.4473919,14.7686019 C31.7882462,13.9096574 31.8601722,12.4570771 30.7310202,11.3319603 C30.7281315,11.3290828 30.725243,11.3259175 30.7220655,11.32304 C30.4144301,11.0185966 30.0556665,10.7837897 29.6651283,10.6261007 C30.0059826,9.76773159 30.0781976,8.31486353 28.9496232,7.19032235 C28.9487566,7.18945907 28.948179,7.1888836 28.9476012,7.18830805 C28.6382327,6.88012397 28.2768693,6.64243944 27.8831537,6.48388717 C28.224008,5.6249426 28.295934,4.17207454 27.166782,3.04695781 C27.1664932,3.04695781 27.1664932,3.04667008 27.1662043,3.04667008 C27.1659154,3.04638234 27.1656266,3.04609453 27.1653377,3.0458068 C25.914287,1.79954588 23.8789825,1.79954588 22.6279318,3.0458068 L20.5247453,5.14065322 L21.6001694,6.21196001 C23.3922541,7.99718353 23.3922541,10.9017687 21.6004582,12.6869921 C20.9973195,13.287534 20.2563947,13.7001727 19.4487434,13.8967085 C19.2554964,14.6811248 18.8522484,15.4246802 18.2378441,16.0364444 C17.6355719,16.6364108 16.8958026,17.0487617 16.0890178,17.2455852 C15.8917268,18.0489933 15.4775021,18.7862182 14.8755188,19.3858967 C14.2732466,19.985863 13.5334773,20.398214 12.7266925,20.5950374 C12.5294015,21.3984456 12.1151768,22.1356704 11.5131935,22.7356367 C10.6451706,23.6000486 9.49088775,24.0765686 8.26323466,24.0765686 C7.03558148,24.0765686 5.88129868,23.6003364 5.01327571,22.7353489 L3.93785155,21.6640422 L0.350504641,25.2379423 C-0.082784701,25.6695727 -0.082784701,26.3691018 0.350504641,26.8007322 L9.85513964,36.2689776 C10.288429,36.7006081 10.9906466,36.7003203 11.4239359,36.2689776 L18.2277341,29.4915164 L20.1446061,29.4915164 C21.9730871,29.4915164 23.6920904,28.781916 24.9850258,27.4942185 L32.5132836,19.9944956 Z" id="Path" fill="#000000" fill-rule="nonzero"></path>
                            <path d="M6.70346862,21.1265292 C7.62761221,22.0442434 9.12625446,22.0442434 10.050398,21.1265292 C10.9748291,20.2091005 10.9748291,18.7216328 10.050398,17.8039186 C10.9748291,18.7216328 12.4731838,18.7216328 13.3976149,17.8039186 C14.3217584,16.8864899 14.3217584,15.3987367 13.3976149,14.481308 C14.3217584,15.3987367 15.8204007,15.3987367 16.7445443,14.481308 C17.6686878,13.5638793 17.6686878,12.076126 16.7445443,11.1586973 C17.6686878,12.076126 19.16733,12.076126 20.0914736,11.1586973 C21.0159047,10.2409831 21.0159047,8.75351544 20.0914736,7.83580132 L15.3724182,3.15103454 C14.4482747,2.23360577 12.9496324,2.23360577 12.0254889,3.15103454 C11.1013453,4.06846324 11.1013453,5.55621637 12.0254889,6.47364515 L12.6166647,7.06081094 C11.6925211,6.14309674 10.1938789,6.14309674 9.26973538,7.06081094 C8.34559179,7.97823971 8.34559179,9.46599277 9.26973538,10.3834215 L10.4523746,11.5574677 C9.52823099,10.640039 8.02958881,10.640039 7.10544522,11.5574677 C6.18101412,12.4748965 6.18101412,13.9626496 7.10544522,14.8800783 L8.28808442,16.05441 C7.36365331,15.1366958 5.86529865,15.1366958 4.94086755,16.05441 C4.01672396,16.9718387 4.01672396,18.4593064 4.94086755,19.3770206 L6.70346862,21.1265292 Z" id="Path" fill="#000000" fill-rule="nonzero"></path>
                            <path d="M20.9805847,1.4232646 C21.1413965,1.2598112 21.3115511,1.10959526 21.4885006,0.970026798 L20.8526149,0.323695189 C20.5219316,-0.0127080018 20.0159975,-0.0958735329 19.5978305,0.11650074 L16.9144265,1.48024311 L18.9194768,3.51851852 L20.9805847,1.4232646 Z" id="Path" fill="#000000" fill-rule="nonzero"></path>
                        </g>
                    </g>
                </g>
            </g>
        </g>
    </g>
</svg>