<?xml version="1.0" encoding="UTF-8"?>
<svg width="72px" height="72px" viewBox="0 0 72 72" version="1.1" xmlns="http://www.w3.org/2000/svg" xmlns:xlink="http://www.w3.org/1999/xlink">
    <title>Group 10</title>
    <defs>
        <linearGradient x1="50%" y1="0%" x2="50%" y2="100%" id="linearGradient-1">
            <stop stop-color="#FD9A00" offset="0%"></stop>
            <stop stop-color="#FF4B00" offset="100%"></stop>
        </linearGradient>
        <filter id="filter-2">
            <feColorMatrix in="SourceGraphic" type="matrix" values="0 0 0 0 1.000000 0 0 0 0 0.301976 0 0 0 0 0.000252 0 0 0 1.000000 0"></feColorMatrix>
        </filter>
    </defs>
    <g id="Development" stroke="none" stroke-width="1" fill="none" fill-rule="evenodd">
        <g id="Headshot-version" transform="translate(-386.000000, -2354.000000)">
            <g id="Group-13" transform="translate(386.000000, 2185.000000)">
                <g id="Group-10" transform="translate(0.000000, 169.000000)">
                    <circle id="Oval-2" stroke="url(#linearGradient-1)" stroke-width="3" cx="36" cy="36" r="34.5"></circle>
                    <g filter="url(#filter-2)" id="Group-7">
                        <g transform="translate(17.000000, 17.000000)">
                            <g id="chat" fill="#000000" fill-rule="nonzero">
                                <path d="M34.7735956,22.7535688 C34.4663308,21.9936445 33.6010909,21.6263367 32.8410929,21.9337501 C32.0810206,22.2410152 31.7139356,23.1061814 32.0212005,23.8662542 L33.7694186,28.1906754 L28.5772368,25.9018478 C28.201394,25.7361919 27.7736725,25.7335943 27.3959,25.8947971 C25.6214828,26.6519011 23.7205971,27.0357597 21.7460866,27.0357597 C13.7992831,27.0357597 8.46096495,20.8136429 8.46096495,15.0022519 C8.46096495,8.36696022 14.4206408,2.9687442 21.7460866,2.9687442 C29.0715324,2.9687442 35.0312082,8.36696022 35.0312082,15.0022519 C35.0312082,15.5199267 34.9829662,16.1398005 34.899025,16.7028228 C34.7780487,17.5136611 35.3372856,18.2689838 36.1481233,18.3899602 C36.9590353,18.5112334 37.7143575,17.9516993 37.8352595,17.1408611 C37.9414663,16.4291046 38,15.6695514 38,15.0022519 C38,10.9699551 36.2924784,7.18643909 33.1918498,4.34869073 C30.1279593,1.54441495 26.0630832,0 21.7460866,0 C17.42909,0 13.3642881,1.54441495 10.3003234,4.34861651 C7.52959628,6.8845178 5.87244435,10.1759645 5.55100378,13.725024 C2.06592301,16.0329257 0,19.7311646 0,23.7146998 C0,26.2031012 0.784020102,28.5641434 2.27633262,30.5960262 L0.108260143,35.959211 C-0.118180674,36.5192646 0.0174166295,37.160736 0.451224093,37.5812586 C0.733922576,37.8554222 1.10642551,38 1.4847175,38 C1.68681463,38 1.89061878,37.9587345 2.08314172,37.8738284 L8.33449653,35.1180916 C9.90703931,35.7034537 11.5693123,35.9998086 13.2850969,35.9998086 C13.3222062,35.9998086 13.3586475,35.9969141 13.3950888,35.9942422 C15.8767347,35.9754649 18.2893573,35.3227123 20.3789066,34.1011482 C22.2505501,33.0068691 23.7901399,31.5036455 24.8695003,29.7284107 C25.9233296,29.5391532 26.9533348,29.2532632 27.9530587,28.8711116 L35.9167841,32.3816516 C36.1093812,32.4664835 36.3131112,32.5078232 36.5152083,32.5078232 C36.8935003,32.507749 37.2660774,32.3631712 37.5487759,32.0890819 C37.9825834,31.6685592 38.1181807,31.0271621 37.8917399,30.4670342 L34.7735956,22.7535688 Z M13.2852454,33.0272792 C13.2649837,33.0272792 13.2452416,33.0295058 13.2251283,33.0303222 C11.709437,33.0226035 10.250597,32.72469 8.88816696,32.1434099 C8.51046873,31.9821328 8.08274719,31.9847305 7.70690441,32.1504606 L4.23072987,33.682778 L5.35209805,30.9088576 C5.55939048,30.3960813 5.46431651,29.8104965 5.105544,29.3896028 C3.70763749,27.7495942 2.96879175,25.7873285 2.96879175,23.7146998 C2.96879175,21.3425989 3.96666025,19.0950369 5.71257758,17.3908293 C6.25615429,20.3540071 7.78988076,23.1885641 10.1034958,25.4152707 C12.9825079,28.1860739 16.790662,29.7912738 20.9027411,29.9845391 C18.972168,31.8849065 16.2094565,33.0272792 13.2852454,33.0272792 Z" id="Shape"></path>
                                <circle id="Oval" cx="21.5576923" cy="14.9807692" r="1.46153846"></circle>
                                <circle id="Oval" cx="27.7692308" cy="14.9807692" r="1.46153846"></circle>
                                <circle id="Oval" cx="15.7115385" cy="14.9807692" r="1.46153846"></circle>
                            </g>
                            <path d="M5.414992,16.4423077 L2.96879175,20.3896553 L1.78541276,25.5368036 L3.60020238,29.8356537 L2.96879175,34.7117473 L8.49164422,33.682778 L14.7790034,34.7117473 L21.5576923,32.7735885 L23.0192308,29.0251086 C19.2250588,28.8636981 16.3019818,28.0496559 14.25,26.5829819 C12.1980182,25.1163079 9.2530155,21.7360832 5.414992,16.4423077 Z" id="Path-3" fill="#000000"></path>
                        </g>
                    </g>
                </g>
            </g>
        </g>
    </g>
</svg>