<svg id="Group_9" data-name="Group 9" xmlns="http://www.w3.org/2000/svg" width="72" height="72" viewBox="0 0 72 72">
  <g id="Oval_2" data-name="Oval 2" fill="none" stroke-linecap="round" stroke-linejoin="round" stroke-miterlimit="10">
    <path d="M36,0A36,36,0,1,1,0,36,36,36,0,0,1,36,0Z" stroke="none"/>
    <path d="M 36 3 C 31.543701171875 3 27.2223014831543 3.872100830078125 23.15583419799805 5.592063903808594 C 19.22656631469727 7.254013061523438 15.69710159301758 9.63385009765625 12.66548156738281 12.66548156738281 C 9.63385009765625 15.69710159301758 7.254013061523438 19.22656631469727 5.592063903808594 23.15583419799805 C 3.872100830078125 27.2223014831543 3 31.543701171875 3 36 C 3 40.456298828125 3.872100830078125 44.77770233154297 5.592063903808594 48.84416580200195 C 7.254013061523438 52.77343368530273 9.63385009765625 56.30290222167969 12.66548156738281 59.33451843261719 C 15.69710159301758 62.36614990234375 19.22656631469727 64.74598693847656 23.15583419799805 66.40793609619141 C 27.2223014831543 68.12789916992188 31.543701171875 69 36 69 C 40.456298828125 69 44.77770233154297 68.12789916992188 48.84416580200195 66.40793609619141 C 52.77343368530273 64.74598693847656 56.30290222167969 62.36614990234375 59.33451843261719 59.33451843261719 C 62.36614990234375 56.30290222167969 64.74598693847656 52.77343368530273 66.40793609619141 48.84416580200195 C 68.12789916992188 44.77770233154297 69 40.456298828125 69 36 C 69 31.543701171875 68.12789916992188 27.2223014831543 66.40793609619141 23.15583419799805 C 64.74598693847656 19.22656631469727 62.36614990234375 15.69710159301758 59.33451843261719 12.66548156738281 C 56.30290222167969 9.63385009765625 52.77343368530273 7.254013061523438 48.84416580200195 5.592063903808594 C 44.77770233154297 3.872100830078125 40.456298828125 3 36 3 M 36 0 C 55.88224792480469 0 72 16.11774826049805 72 36 C 72 55.88224792480469 55.88224792480469 72 36 72 C 16.11774826049805 72 0 55.88224792480469 0 36 C 0 16.11774826049805 16.11774826049805 0 36 0 Z" stroke="none" fill="#707070"/>
  </g>
  <g id="collaboration-2" transform="translate(16.927 18)">
    <path id="Path" d="M15.859,3.538,12.259,0,4.811,7.318A9.085,9.085,0,0,1,0,9.795l4.745,4.663a1.127,1.127,0,0,0,1.574,0l9.539-9.373a1.08,1.08,0,0,0,0-1.547Z" transform="translate(21.489 21.815)"/>
    <path id="Path-2" data-name="Path" d="M32.488,17.883a3.191,3.191,0,0,0,0-4.518l0,0a3.205,3.205,0,0,0-1.063-.7,3.191,3.191,0,0,0-.716-3.437L30.7,9.212a3.209,3.209,0,0,0-1.057-.7,3.19,3.19,0,0,0-.716-3.436l0,0a3.2,3.2,0,0,0-1.064-.7A3.191,3.191,0,0,0,27.141.936h0a3.221,3.221,0,0,0-4.537,0L20.5,3.03,21.575,4.1a4.577,4.577,0,0,1-2.151,7.685,4.588,4.588,0,0,1-3.36,3.349A4.6,4.6,0,0,1,12.7,18.484a4.6,4.6,0,0,1-7.713,2.14L3.912,19.553.325,23.127a1.1,1.1,0,0,0,0,1.563l9.5,9.468a1.112,1.112,0,0,0,1.569,0l6.8-6.777h1.917a6.815,6.815,0,0,0,4.84-2Z" transform="translate(0.026 2.111)"/>
    <path id="Path-3" data-name="Path" d="M2.456,18.664a2.379,2.379,0,0,0,3.347,0,2.337,2.337,0,0,0,0-3.323,2.379,2.379,0,0,0,3.347,0,2.338,2.338,0,0,0,0-3.323,2.379,2.379,0,0,0,3.347,0,2.338,2.338,0,0,0,0-3.323,2.379,2.379,0,0,0,3.347,0,2.337,2.337,0,0,0,0-3.323L11.125.688a2.379,2.379,0,0,0-3.347,0,2.338,2.338,0,0,0,0,3.323l.591.587a2.379,2.379,0,0,0-3.347,0,2.338,2.338,0,0,0,0,3.323L6.2,9.095a2.379,2.379,0,0,0-3.347,0,2.337,2.337,0,0,0,0,3.323L4.04,13.591a2.379,2.379,0,0,0-3.347,0,2.338,2.338,0,0,0,0,3.323Z" transform="translate(4.248 2.463)"/>
    <path id="Path-4" data-name="Path" d="M4.066,1.423A5.413,5.413,0,0,1,4.574.97L3.938.324A1.074,1.074,0,0,0,2.683.117L0,1.48,2.005,3.519Z" transform="translate(16.914)"/>
  </g>
</svg>
