<svg id="Group_11" data-name="Group 11" xmlns="http://www.w3.org/2000/svg" width="72" height="72" viewBox="0 0 72 72">
  <g id="Oval_2" data-name="Oval 2" fill="none" stroke-linecap="round" stroke-linejoin="round" stroke-miterlimit="10">
    <path d="M36,0A36,36,0,1,1,0,36,36,36,0,0,1,36,0Z" stroke="none"/>
    <path d="M 36 3 C 31.543701171875 3 27.2223014831543 3.872100830078125 23.15583419799805 5.592063903808594 C 19.22656631469727 7.254013061523438 15.69710159301758 9.63385009765625 12.66548156738281 12.66548156738281 C 9.63385009765625 15.69710159301758 7.254013061523438 19.22656631469727 5.592063903808594 23.15583419799805 C 3.872100830078125 27.2223014831543 3 31.543701171875 3 36 C 3 40.456298828125 3.872100830078125 44.77770233154297 5.592063903808594 48.84416580200195 C 7.254013061523438 52.77343368530273 9.63385009765625 56.30290222167969 12.66548156738281 59.33451843261719 C 15.69710159301758 62.36614990234375 19.22656631469727 64.74598693847656 23.15583419799805 66.40793609619141 C 27.2223014831543 68.12789916992188 31.543701171875 69 36 69 C 40.456298828125 69 44.77770233154297 68.12789916992188 48.84416580200195 66.40793609619141 C 52.77343368530273 64.74598693847656 56.30290222167969 62.36614990234375 59.33451843261719 59.33451843261719 C 62.36614990234375 56.30290222167969 64.74598693847656 52.77343368530273 66.40793609619141 48.84416580200195 C 68.12789916992188 44.77770233154297 69 40.456298828125 69 36 C 69 31.543701171875 68.12789916992188 27.2223014831543 66.40793609619141 23.15583419799805 C 64.74598693847656 19.22656631469727 62.36614990234375 15.69710159301758 59.33451843261719 12.66548156738281 C 56.30290222167969 9.63385009765625 52.77343368530273 7.254013061523438 48.84416580200195 5.592063903808594 C 44.77770233154297 3.872100830078125 40.456298828125 3 36 3 M 36 0 C 55.88224792480469 0 72 16.11774826049805 72 36 C 72 55.88224792480469 55.88224792480469 72 36 72 C 16.11774826049805 72 0 55.88224792480469 0 36 C 0 16.11774826049805 16.11774826049805 0 36 0 Z" stroke="none" fill="#707070"/>
  </g>
  <g id="event_available-24px" transform="translate(16.606 18)">
    <path id="Path" d="M0,0H37V37H0Z" transform="translate(0.394)" fill="none"/>
    <path id="Shape" d="M3.111,31A3.1,3.1,0,0,1,0,27.9L.015,6.2a3.092,3.092,0,0,1,3.1-3.1H4.667V0H7.778V3.1H20.222V0h3.111V3.1h1.555A3.115,3.115,0,0,1,28,6.2V27.9A3.114,3.114,0,0,1,24.889,31Z" transform="translate(5.394 1)"/>
  </g>
</svg>
