<svg id="Group_10" data-name="Group 10" xmlns="http://www.w3.org/2000/svg" width="72" height="72" viewBox="0 0 72 72">
  <g id="Oval_2" data-name="Oval 2" fill="none" stroke-linecap="round" stroke-linejoin="round" stroke-miterlimit="10">
    <path d="M36,0A36,36,0,1,1,0,36,36,36,0,0,1,36,0Z" stroke="none"/>
    <path d="M 36 3 C 31.543701171875 3 27.2223014831543 3.872100830078125 23.15583419799805 5.592063903808594 C 19.22656631469727 7.254013061523438 15.69710159301758 9.63385009765625 12.66548156738281 12.66548156738281 C 9.63385009765625 15.69710159301758 7.254013061523438 19.22656631469727 5.592063903808594 23.15583419799805 C 3.872100830078125 27.2223014831543 3 31.543701171875 3 36 C 3 40.456298828125 3.872100830078125 44.77770233154297 5.592063903808594 48.84416580200195 C 7.254013061523438 52.77343368530273 9.63385009765625 56.30290222167969 12.66548156738281 59.33451843261719 C 15.69710159301758 62.36614990234375 19.22656631469727 64.74598693847656 23.15583419799805 66.40793609619141 C 27.2223014831543 68.12789916992188 31.543701171875 69 36 69 C 40.456298828125 69 44.77770233154297 68.12789916992188 48.84416580200195 66.40793609619141 C 52.77343368530273 64.74598693847656 56.30290222167969 62.36614990234375 59.33451843261719 59.33451843261719 C 62.36614990234375 56.30290222167969 64.74598693847656 52.77343368530273 66.40793609619141 48.84416580200195 C 68.12789916992188 44.77770233154297 69 40.456298828125 69 36 C 69 31.543701171875 68.12789916992188 27.2223014831543 66.40793609619141 23.15583419799805 C 64.74598693847656 19.22656631469727 62.36614990234375 15.69710159301758 59.33451843261719 12.66548156738281 C 56.30290222167969 9.63385009765625 52.77343368530273 7.254013061523438 48.84416580200195 5.592063903808594 C 44.77770233154297 3.872100830078125 40.456298828125 3 36 3 M 36 0 C 55.88224792480469 0 72 16.11774826049805 72 36 C 72 55.88224792480469 55.88224792480469 72 36 72 C 16.11774826049805 72 0 55.88224792480469 0 36 C 0 16.11774826049805 16.11774826049805 0 36 0 Z" stroke="none" fill="#707070"/>
  </g>
  <g id="Group_7" data-name="Group 7" transform="translate(17 17)">
    <g id="chat">
      <path id="Shape" d="M.451,37.581a1.485,1.485,0,0,1-.343-1.622L2.276,30.6A11.518,11.518,0,0,1,0,23.715a12,12,0,0,1,5.551-9.99A14.423,14.423,0,0,1,10.3,4.349,16.868,16.868,0,0,1,21.746,0,16.869,16.869,0,0,1,33.192,4.349,14.347,14.347,0,0,1,38,15a14.964,14.964,0,0,1-.165,2.138A1.484,1.484,0,0,1,34.9,16.7a12.154,12.154,0,0,0,.132-1.7c0-6.635-5.96-12.033-13.286-12.033S8.461,8.367,8.461,15c0,5.811,5.339,12.034,13.285,12.034a14.319,14.319,0,0,0,5.65-1.141,1.484,1.484,0,0,1,1.181.007l5.193,2.289-1.749-4.324a1.484,1.484,0,0,1,2.752-1.112l3.118,7.713a1.484,1.484,0,0,1-1.975,1.915l-7.964-3.511a17.107,17.107,0,0,1-3.083.858A12.785,12.785,0,0,1,20.379,34.1a14.051,14.051,0,0,1-6.984,1.894c-.036,0-.073.005-.11.005a14.112,14.112,0,0,1-4.95-.882L2.084,37.874a1.486,1.486,0,0,1-1.633-.292Z"/>
      <circle id="Oval" cx="1.462" cy="1.462" r="1.462" transform="translate(20.096 13.519)"/>
      <circle id="Oval-2" data-name="Oval" cx="1.462" cy="1.462" r="1.462" transform="translate(26.308 13.519)"/>
      <circle id="Oval-3" data-name="Oval" cx="1.462" cy="1.462" r="1.462" transform="translate(14.25 13.519)"/>
    </g>
    <path id="Path_3" data-name="Path 3" d="M3.63,0,1.183,3.947,0,9.094l1.815,4.3-.631,4.876L6.706,17.24l6.287,1.029,6.779-1.938,1.462-3.748s-5.691-.242-8.769-2.442S3.63,0,3.63,0Z" transform="translate(1.785 16.442)"/>
  </g>
</svg>
