<?xml version="1.0" encoding="UTF-8"?>
<svg width="72px" height="72px" viewBox="0 0 72 72" version="1.1" xmlns="http://www.w3.org/2000/svg" xmlns:xlink="http://www.w3.org/1999/xlink">
    <title>Group 11</title>
    <defs>
        <linearGradient x1="50%" y1="0%" x2="50%" y2="100%" id="linearGradient-1">
            <stop stop-color="#FD9A00" offset="0%"></stop>
            <stop stop-color="#FF4B00" offset="100%"></stop>
        </linearGradient>
        <filter id="filter-2">
            <feColorMatrix in="SourceGraphic" type="matrix" values="0 0 0 0 1.000000 0 0 0 0 0.301976 0 0 0 0 0.000252 0 0 0 1.000000 0"></feColorMatrix>
        </filter>
    </defs>
    <g id="Development" stroke="none" stroke-width="1" fill="none" fill-rule="evenodd">
        <g id="Headshot-version" transform="translate(-387.000000, -2185.000000)">
            <g id="Group-13" transform="translate(386.000000, 2185.000000)">
                <g id="Group-11" transform="translate(1.000000, 0.000000)">
                    <circle id="Oval-2" stroke="url(#linearGradient-1)" stroke-width="3" cx="36" cy="36" r="34.5"></circle>
                    <g filter="url(#filter-2)" id="event_available-24px">
                        <g transform="translate(16.606383, 18.000000)">
                            <polygon id="Path" points="0.393617021 0 37.393617 0 37.393617 37 0.393617021 37"></polygon>
                            <path d="M26.4402837,16.593 L24.7913948,14.95 L17.2002837,22.514 L13.9025059,19.228 L12.253617,20.871 L17.2002837,25.8 L26.4402837,16.593 L26.4402837,16.593 Z M30.2825059,4.1 L28.7269504,4.1 L28.7269504,1 L25.6158392,1 L25.6158392,4.1 L13.1713948,4.1 L13.1713948,1 L10.0602837,1 L10.0602837,4.1 L8.50472813,4.1 C6.77806147,4.1 5.40917258,5.495 5.40917258,7.2 L5.39361702,28.9 C5.39361702,30.605 6.77806147,32 8.50472813,32 L30.2825059,32 C31.993617,32 33.393617,30.605 33.393617,28.9 L33.393617,7.2 C33.393617,5.495 31.993617,4.1 30.2825059,4.1 Z M30.2825059,28.9 L8.50472813,28.9 L8.50472813,11.85 L30.2825059,11.85 L30.2825059,28.9 Z" id="Shape" fill="#000000" fill-rule="nonzero"></path>
                        </g>
                    </g>
                </g>
            </g>
        </g>
    </g>
</svg>